<?xml version="1.0" encoding="UTF-8" standalone="no"?>
<svg
   xmlns:dc="http://purl.org/dc/elements/1.1/"
   xmlns:cc="http://creativecommons.org/ns#"
   xmlns:rdf="http://www.w3.org/1999/02/22-rdf-syntax-ns#"
   xmlns:svg="http://www.w3.org/2000/svg"
   xmlns="http://www.w3.org/2000/svg"
   xmlns:xlink="http://www.w3.org/1999/xlink"
   xmlns:sodipodi="http://sodipodi.sourceforge.net/DTD/sodipodi-0.dtd"
   xmlns:inkscape="http://www.inkscape.org/namespaces/inkscape"
   width="210mm"
   height="297mm"
   viewBox="0 0 210 297"
   version="1.1"
   id="svg8"
   inkscape:version="1.0.1 (3bc2e813f5, 2020-09-07)"
   sodipodi:docname="desenhandorda.svg"
   inkscape:export-filename="C:\Users\Claudia\Desktop\desenhando.png"
   inkscape:export-xdpi="96"
   inkscape:export-ydpi="96">
  <defs
     id="defs2">
    <linearGradient
       inkscape:collect="always"
       id="linearGradient1185">
      <stop
         style="stop-color:#a55820;stop-opacity:1"
         offset="0"
         id="stop1181" />
      <stop
         style="stop-color:#411f05;stop-opacity:1"
         offset="1"
         id="stop1183" />
    </linearGradient>
    <linearGradient
       inkscape:collect="always"
       id="linearGradient1177">
      <stop
         style="stop-color:#984303;stop-opacity:1"
         offset="0"
         id="stop1173" />
      <stop
         style="stop-color:#411f05;stop-opacity:1"
         offset="0.93103892"
         id="stop1179" />
      <stop
         style="stop-color:#ff6b00;stop-opacity:0"
         offset="1"
         id="stop1175" />
    </linearGradient>
    <linearGradient
       inkscape:collect="always"
       id="linearGradient1070">
      <stop
         style="stop-color:#66ff00;stop-opacity:1;"
         offset="0"
         id="stop1066" />
      <stop
         style="stop-color:#00fffc;stop-opacity:0"
         offset="1"
         id="stop1068" />
    </linearGradient>
    <linearGradient
       inkscape:collect="always"
       id="linearGradient1056">
      <stop
         style="stop-color:#0be43c;stop-opacity:0.99672133"
         offset="0"
         id="stop1052" />
      <stop
         style="stop-color:#368d8a;stop-opacity:0.72941178"
         offset="1"
         id="stop1054" />
    </linearGradient>
    <linearGradient
       inkscape:collect="always"
       xlink:href="#linearGradient1056"
       id="linearGradient1058"
       gradientUnits="userSpaceOnUse"
       x1="80.886902"
       y1="122.84226"
       x2="79.752975"
       y2="54.42857" />
    <linearGradient
       inkscape:collect="always"
       xlink:href="#linearGradient1070"
       id="linearGradient1072"
       x1="97.820648"
       y1="136.30745"
       x2="98.355186"
       y2="-4.2763124"
       gradientUnits="userSpaceOnUse" />
    <linearGradient
       inkscape:collect="always"
       xlink:href="#linearGradient1177"
       id="linearGradient1171"
       x1="98.576599"
       y1="148.60185"
       x2="102.09695"
       y2="272.08035"
       gradientUnits="userSpaceOnUse" />
    <linearGradient
       inkscape:collect="always"
       xlink:href="#linearGradient1185"
       id="linearGradient1187"
       x1="96.751564"
       y1="51.048477"
       x2="97.781723"
       y2="136.39084"
       gradientUnits="userSpaceOnUse" />
  </defs>
  <sodipodi:namedview
     id="base"
     pagecolor="#ffffff"
     bordercolor="#666666"
     borderopacity="1.0"
     inkscape:pageopacity="0.0"
     inkscape:pageshadow="2"
     inkscape:zoom="0.35000001"
     inkscape:cx="264.16452"
     inkscape:cy="461.08701"
     inkscape:document-units="mm"
     inkscape:current-layer="layer1"
     inkscape:document-rotation="0"
     showgrid="false"
     inkscape:window-width="1366"
     inkscape:window-height="706"
     inkscape:window-x="-8"
     inkscape:window-y="-8"
     inkscape:window-maximized="1" />
  <metadata
     id="metadata5">
    <rdf:RDF>
      <cc:Work
         rdf:about="">
        <dc:format>image/svg+xml</dc:format>
        <dc:type
           rdf:resource="http://purl.org/dc/dcmitype/StillImage" />
        <dc:title></dc:title>
      </cc:Work>
    </rdf:RDF>
  </metadata>
  <g
     inkscape:label="Layer 1"
     inkscape:groupmode="layer"
     id="layer1"
     style="display:inline">
    <path
       style="fill:url(#linearGradient1072);fill-opacity:1;stroke:#000000;stroke-width:0.264583px;stroke-linecap:butt;stroke-linejoin:miter;stroke-opacity:1"
       d="M -7.3859929,155.21825 C -21.874085,98.635989 33.920826,33.851388 100.43864,30.463707 160.21132,27.419548 219.39247,74.389568 222.5628,133.92103 Z"
       id="path1064"
       sodipodi:nodetypes="cscc"
       inkscape:export-xdpi="96.199997"
       inkscape:export-ydpi="96.199997" />
    <path
       style="display:none;fill:url(#linearGradient1058);fill-opacity:1;stroke:#000000;stroke-width:0.264583px;stroke-linecap:butt;stroke-linejoin:miter;stroke-opacity:1"
       d="M -12.710362,134.83353 C 6.8932114,52.948924 53.213052,31.215769 96.019475,28.985813 166.9187,25.292392 236.74553,90.914836 222.62797,141.74107 Z"
       id="path1028"
       sodipodi:nodetypes="cscc" />
    <path
       style="fill:url(#linearGradient1171);fill-opacity:1;stroke:#000000;stroke-width:0.264583px;stroke-linecap:butt;stroke-linejoin:miter;stroke-opacity:1"
       d="m -12.710362,134.83353 235.273162,-0.9125 c 7.13572,70.68285 -60.38934,133.7084 -120.49764,132.2151 -44.415925,-1.10345 -106.3110533,-11.8904 -114.775522,-131.3026 z"
       id="path885"
       sodipodi:nodetypes="ccsc"
       inkscape:export-xdpi="96.199997"
       inkscape:export-ydpi="96.199997" />
    <circle
       style="fill:#a55820;fill-opacity:0;stroke:#a55820;stroke-width:9.8;stroke-miterlimit:4;stroke-dasharray:none;stroke-opacity:1"
       id="path845"
       cx="105"
       cy="148.5"
       r="118.66766"
       inkscape:export-xdpi="96.199997"
       inkscape:export-ydpi="96.199997" />
    <path
       style="display:inline;opacity:0;fill:none;stroke:#000000;stroke-width:0.264583px;stroke-linecap:butt;stroke-linejoin:miter;stroke-opacity:1"
       d="m 85.526247,47.039434 -28.86511,119.736746 -38.48681,22.45064 -16.0361709,53.4539 45.9703559,-54.52298 43.832203,-35.27958 -7.483546,58.7993 10.69078,93.0098 3.207234,-91.94073 9.621707,-52.38482 16.03617,33.14142 9.6217,31.00326 23.51972,36.34866 -16.03617,-59.86837 -21.83013,-63.30537 84.90573,83.61785 40.62497,6.41447 -65.21377,-56.66114 -47.92551,-59.23984 z"
       id="path853" />
    <path
       style="display:inline;opacity:0.99;fill:#411f05;fill-opacity:1;stroke:#000000;stroke-width:0;stroke-linecap:butt;stroke-linejoin:miter;stroke-miterlimit:4;stroke-dasharray:none;stroke-opacity:1"
       d="m 49.275146,155.21825 c 0,0 -9.184799,-12.93247 -14.967099,-13.89801 -9.79829,-1.63615 -32.3395999,6.1472 -41.6940399,13.89801 12.56167,-5.07812 32.7013699,-11.28113 40.0904299,-8.28535 4.78718,1.94088 10.95805,10.95805 10.95805,10.95805 0,0 -15.90857,-2.126 -19.24341,3.4745 -3.56431,5.98588 -12.68453,17.78419 -17.3725099,13.09621 8.2514399,5.67287 15.6198499,-3.94693 20.0452099,-7.48354 5.50333,-4.39811 20.84702,-3.47451 20.84702,-3.47451 z"
       id="path857"
       sodipodi:nodetypes="cscscscscc"
       inkscape:export-xdpi="96.199997"
       inkscape:export-ydpi="96.199997" />
    <path
       style="display:inline;fill:#411f05;fill-opacity:1;stroke:#000000;stroke-width:0;stroke-linecap:butt;stroke-linejoin:miter;stroke-miterlimit:4;stroke-dasharray:none;stroke-opacity:1"
       d="m 155.95013,175.7548 c 0,0 7.41786,8.38299 8.17513,14.16529 1.28323,9.79829 -4.82123,32.3396 -10.90018,41.69404 3.98276,-12.56167 8.84777,-32.70137 6.49819,-40.09043 -1.52223,-4.78718 -8.59437,-10.95805 -8.59437,-10.95805 0,0 1.66741,15.90857 -2.72504,19.24341 -4.69471,3.56431 -13.9481,12.68453 -10.27132,17.37251 -4.44922,-8.25144 3.09556,-15.61985 5.86932,-20.04521 3.44942,-5.50333 2.72505,-20.84702 2.72505,-20.84702 z"
       id="path857-8"
       sodipodi:nodetypes="cscscscscc"
       inkscape:export-xdpi="96.199997"
       inkscape:export-ydpi="96.199997" />
    <path
       style="display:inline;fill:#411f05;fill-opacity:1;stroke:#000000;stroke-width:0;stroke-linecap:butt;stroke-linejoin:miter;stroke-miterlimit:4;stroke-dasharray:none;stroke-opacity:1"
       d="m 125.61667,145.66189 c 0,0 1.89719,13.87954 -1.06907,19.77795 -2.75717,5.48262 -12.78401,5.78047 -14.16529,11.75986 -1.80393,7.80897 9.88897,21.9161 9.88897,21.9161 0,0 -5.68982,-11.49537 -4.00904,-17.10526 2.67685,-8.93442 19.18362,-9.98515 20.31248,-19.2434 0.81957,-6.72163 -10.95805,-17.10525 -10.95805,-17.10525 z"
       id="path875"
       sodipodi:nodetypes="caacaac"
       inkscape:export-xdpi="96.199997"
       inkscape:export-ydpi="96.199997" />
    <path
       style="display:inline;fill:url(#linearGradient1187);fill-opacity:1;stroke:#000000;stroke-width:0;stroke-linecap:butt;stroke-linejoin:miter;stroke-miterlimit:4;stroke-dasharray:none;stroke-opacity:1"
       d="M 116.92243,-0.76517041 C 145.6932,34.429173 165.08989,100.60035 115.01187,134.20681 c -31.695286,-4.93834 -75.014286,22.62834 -80.024516,29.51386 -4.204631,5.77839 -10.485216,22.0853 -24.89787,29.04313 24.104007,-9.10596 33.328368,-24.87425 39.549927,-30.84203 9.021585,-8.65359 18.926127,-14.03771 42.034039,-20.00166 0,0 -9.138915,9.72993 -25.432647,21.19387 -12.019172,8.45645 -10.655964,20.06274 -17.586668,38.44643 -2.465075,6.53861 -29.350975,-0.36915 -31.589574,6.94735 4.152726,-5.61266 29.055073,10.71115 34.755788,0.78686 7.082249,-12.32938 7.349591,-29.23588 16.190413,-35.87111 8.168603,-6.13071 30.565836,-24.82166 30.565836,-24.82166 0,0 30.133932,-5.24437 39.633212,18.84326 5.47973,13.89515 28.22161,17.7276 33.3599,27.62588 4.54775,8.76068 -1.50673,29.57385 -1.50673,29.57385 0,0 13.31575,-19.73501 11.36558,-30.36509 -3.47927,-18.96497 -38.18672,-43.44827 -38.18672,-43.44827 0,0 9.39073,-5.33337 21.47704,1.36629 12.08408,6.69843 26.86295,25.43038 35.50757,20.11351 8.66375,-5.32863 3.274,-30.33768 3.274,-30.33768 0,0 -3.35982,14.57444 -9.374,16.8 -7.27137,2.69079 -19.88887,-8.79713 -26.88786,-16.53552 -7.7817,-8.6038 -7.7817,-8.6038 -7.7817,-8.6038 C 195.47025,106.46615 148.0145,14.634755 138.33276,0.01764387 Z"
       id="path855"
       sodipodi:nodetypes="ccscscsscsscsscacsscssccc"
       inkscape:export-xdpi="96.199997"
       inkscape:export-ydpi="96.199997" />
    <path
       style="fill:#ca7139;fill-opacity:1;stroke:#000000;stroke-width:0;stroke-linecap:butt;stroke-linejoin:miter;stroke-miterlimit:4;stroke-dasharray:none;stroke-opacity:1"
       d="m -149.74412,-52.992129 c 15.33905,-1.343951 43.65098,-1.895446 42.07214,14.150476 -0.88768,9.021632 -8.50808,10.72764 -11.80591,11.821282 15.87133,31.0086888 54.732868,23.0066838 94.669944,13.179728 -35.983431,6.4587748 -79.581524,35.563081 -97.133484,-12.792061 -11.76411,1.623281 -19.39899,-6.225751 -19.39899,-6.225751 -0.061,-0.201628 -1.5191,-0.675986 -1.85807,-1.396736 -0.44281,-0.941538 0.66557,-2.729329 1.60474,-2.74436 3.02794,-0.04844 1.55708,3.625084 1.55708,3.625084 5.61137,4.911383 19.29073,10.241412 26.18971,-0.623358 6.80787,-10.72131 -15.69048,-12.948846 -30.4004,-12.579324 -1.31366,0.03307 -7.18979,3.615128 -10.46737,3.589991 -2.93667,-0.0226 -5.42359,-2.762108 -6.07658,-6.116951 -0.72897,-3.745252 1.76847,-8.273795 3.9524,-8.990713 7.08898,-2.327122 7.19051,5.885591 7.09479,5.102693 z"
       id="path982"
       sodipodi:nodetypes="cscccsssssssssc"
       inkscape:export-xdpi="95.5"
       inkscape:export-ydpi="95.5" />
    <path
       style="fill:#ca7139;fill-opacity:1;stroke:#000000;stroke-width:0;stroke-linecap:butt;stroke-linejoin:miter;stroke-miterlimit:4;stroke-dasharray:none;stroke-opacity:1"
       d="m -94.744954,-34.467653 c -9.589226,-3.102509 -13.738916,7.564635 -11.820576,13.430981 0.85207,2.605653 4.04958,2.874875 6.08655,1.760487 2.150234,-1.17639 3.121044,-3.81624 3.121044,-3.81624 7.365197,9.919873 11.44095,0.986699 14.806828,-6.304338 -0.140836,13.458143 4.564878,12.406955 7.859431,9.448905 1.181657,-1.060932 1.897926,-1.927092 2.965724,-3.5557 l -0.373279,-1.644635 c -10.226304,12.976333 -2.465236,-9.102978 -8.212185,-10.278839 -1.929527,-0.394779 -2.06109,4.589994 -3.639099,7.003622 -2.547071,3.895861 -3.317791,6.097564 -6.066221,6.153279 -3.868099,0.07847 -2.588062,-8.637624 -5.848068,-8.634215 0,0 -1.493131,7.811921 -5.040995,7.472305 -2.04836,-0.196074 -2.10955,-1.907208 -1.68817,-5.262169 0.0639,-0.509011 0.38555,-2.438289 2.43219,-3.335788 2.983549,-1.308355 7.933525,-1.623378 5.416826,-2.437655 z"
       id="path847"
       sodipodi:nodetypes="sssccsccssssssss"
       inkscape:export-xdpi="95.5"
       inkscape:export-ydpi="95.5" />
    <path
       style="opacity:1;fill:#ca7139;fill-opacity:1;stroke:#000000;stroke-width:0;stroke-linecap:butt;stroke-linejoin:miter;stroke-miterlimit:4;stroke-dasharray:none;stroke-opacity:1"
       d="m -74.865528,-43.852211 c 2.75799,4.682399 -9.925269,6.506506 -9.925269,6.506506 0,0 7.914116,-9.920962 9.925269,-6.506506 z"
       id="path846"
       sodipodi:nodetypes="scs"
       inkscape:export-xdpi="95.5"
       inkscape:export-ydpi="95.5" />
    <path
       style="fill:#ca7139;fill-opacity:1;stroke:#000000;stroke-width:0;stroke-linecap:butt;stroke-linejoin:miter;stroke-miterlimit:4;stroke-dasharray:none;stroke-opacity:1"
       d="m -68.711584,-37.825787 c -1.469701,-0.400446 -6.257266,5.602999 0.703866,4.942398 -6.111636,7.24939 -5.081981,8.604543 -0.982794,13.5889 1.439221,1.750028 4.137208,7.824807 0.278928,8.31271 -2.29091,0.28968 -2.213497,-1.734745 -0.897765,-3.752691 1.817751,-2.787938 5.187316,-6.281243 6.924619,-8.506392 l -0.395928,-1.259837 c -5.822461,6.144597 -8.819998,10.049232 -8.84175,12.453887 -0.02382,2.6314418 3.281365,3.4570308 4.624503,3.2226268 2.790923,-0.487082 4.95155,-2.1919108 5.185072,-4.6288198 0.750677,-7.834234 -6.592715,-8.235016 -6.020131,-13.083457 0.374897,-3.174527 5.94492,-5.704378 5.800162,-7.170654 -0.148912,-1.508342 -4.655022,0.124253 -6.162669,-0.504431 -1.189911,-0.496217 0.682349,-3.369415 -0.216113,-3.61424 z"
       id="path848"
       sodipodi:nodetypes="scsssccsssasss"
       inkscape:export-xdpi="95.5"
       inkscape:export-ydpi="95.5" />
    <path
       style="fill:#ca7139;fill-opacity:1;stroke:#000000;stroke-width:0;stroke-linecap:butt;stroke-linejoin:miter;stroke-miterlimit:4;stroke-dasharray:none;stroke-opacity:1"
       d="m -136.23869,-47.807481 -0.088,38.1339538 c 0,0 -3.91324,0.964237 -3.6513,2.519642 0.34877,2.071144 4.17895,2.582342 5.63092,1.211376 0.84677,-0.799529 -0.13196,-3.68254 -0.13196,-3.68254 l -0.0439,-38.2308918 z"
       id="path850"
       sodipodi:nodetypes="ccaaccc"
       inkscape:export-xdpi="95.5"
       inkscape:export-ydpi="95.5" />
    <path
       style="fill:#ca7139;fill-opacity:1;stroke:#000000;stroke-width:0;stroke-linecap:butt;stroke-linejoin:miter;stroke-miterlimit:4;stroke-dasharray:none;stroke-opacity:1"
       d="m -56.514761,-34.638957 c -10.524042,1.861248 -6.661354,15.087965 -2.084146,16.206269 4.554905,1.112887 10.288135,-2.558861 12.940422,-6.064489 l -0.777677,-1.130676 c -10.089635,10.727371 -10.970851,1.841793 -11.789466,-2.466914 -0.379341,-1.996579 1.753788,-8.170227 4.883761,-2.91237 1.412948,2.373578 -4.230527,7.126672 -4.230527,7.126672 l -0.03113,1.439025 c 9.558081,-6.926443 4.661617,-12.829406 1.088735,-12.197517 z"
       id="path852"
       sodipodi:nodetypes="ssccssccs"
       inkscape:export-xdpi="95.5"
       inkscape:export-ydpi="95.5" />
    <path
       style="fill:#ca7139;fill-opacity:1;stroke:#000000;stroke-width:0;stroke-linecap:butt;stroke-linejoin:miter;stroke-miterlimit:4;stroke-dasharray:none;stroke-opacity:1"
       d="m -43.481016,-27.854961 c 1.936466,-3.705272 3.456318,-7.233855 -2.021936,-6.544172 -1.775451,0.223514 -3.661968,1.935178 -3.199585,4.618029 0.818218,4.747503 6.639541,7.4003 5.625915,11.656781 -1.19583,5.021587 -4.728233,0.411132 -4.728233,0.411132 0,0 0.431472,-0.224888 0.600231,-0.611173 0.236443,-0.54125 0.106883,-1.3003 -1.131298,-1.331506 -0.294229,-0.0076 -0.830252,0.470963 -0.853739,0.947177 -0.02691,0.545241 0.482702,1.098301 0.482702,1.098301 5.478926,8.9895728 10.174236,0.780874 10.607414,-1.062133 1.092044,-4.64629 -7.024281,-9.913634 -6.874602,-12.677244 0.046,-0.848567 0.456287,-2.481866 1.182074,-2.192805 1.798224,0.716192 -0.404395,4.180072 -0.404395,4.180072 z"
       id="path854"
       sodipodi:nodetypes="cssscssscssscc"
       inkscape:export-xdpi="95.5"
       inkscape:export-ydpi="95.5" />
    <path
       style="fill:#ca7139;fill-opacity:1;stroke:#000000;stroke-width:0;stroke-linecap:butt;stroke-linejoin:miter;stroke-miterlimit:4;stroke-dasharray:none;stroke-opacity:1"
       d="m -13.018206,-32.83493 c -1.10391,-0.875177 -5.39751,1.988426 -7.36926,5.919374 -1.84858,3.68544 -1.48263,8.045707 2.66214,9.440807 5.14415,1.73145 9.2979705,-7.936973 12.7311005,-16.975835 2.90542,-7.649553 6.66671,-14.744725 2.13808,-14.762083 -6.31242,-0.02428 -8.8251405,10.544277 -9.1372205,18.901968 -0.23812,6.377751 1.02746,12.148902 5.7938605,13.368973 2.59664,0.664629 6.81869996,-4.60323 6.81869996,-4.60323 l -0.61589,-1.841263 c -5.17048996,9.373127 -8.32493996,-3.282092 -7.84018996,-7.201326 0.91916,-7.431301 1.08586,-17.297431 5.59662,-17.268378 1.55753996,0.01058 -8.1993405,28.411174 -13.0654905,26.795513 -1.70001,-0.671931 -2.60576,-3.891323 -1.46064,-6.520896 1.16521,-2.675713 4.38704,-4.747126 3.74819,-5.253624 z"
       id="path860"
       sodipodi:nodetypes="sssssssccsscss"
       inkscape:export-xdpi="95.5"
       inkscape:export-ydpi="95.5" />
    <path
       style="fill:#ca7139;fill-opacity:1;stroke:#000000;stroke-width:0;stroke-linecap:butt;stroke-linejoin:miter;stroke-miterlimit:4;stroke-dasharray:none;stroke-opacity:1"
       d="m 13.454504,-25.059237 c 0.48231,2.857119 -3.06709,9.138907 -7.2923795,8.117511 -10.65933,-2.576756 -6.67254004,-16.097432 0.17597,-15.893204 5.9224495,0.176627 7.2050295,7.407424 7.1266395,7.752776 l -1.09978,0.09698 c -0.343,-2.014893 -2.26256,-5.609503 -4.1254595,-6.016714 -6.16033,-1.346579 -4.80245,11.774919 1.04604,11.104492 1.6068195,-0.184194 3.1462895,-2.786147 3.1044095,-5.091647 -0.006,-0.431243 0.97726,-0.587362 1.06457,-0.07012 z"
       id="path864"
       sodipodi:nodetypes="sssccssss"
       inkscape:export-xdpi="95.5"
       inkscape:export-ydpi="95.5" />
    <path
       style="fill:#ca7139;fill-opacity:1;stroke:#000000;stroke-width:0;stroke-linecap:butt;stroke-linejoin:miter;stroke-miterlimit:4;stroke-dasharray:none;stroke-opacity:1"
       d="m -48.915367,2.7309278 c 0.328127,-1.85565201 3.558714,-3.19720301 4.839079,-1.93820201 1.124959,1.10620801 -1.055794,4.84549201 -1.055794,4.84549201 0,0 9.262225,0.5242 19.003416,0.32988 10.62076,-0.2119 21.7942805,-1.02184 21.7328105,2.18977 -0.0934,4.8809302 -8.9114905,4.0768802 -18.5535305,3.3976702 -6.79117,-0.47842 -15.486819,-0.6927 -18.839344,-1.7502302 -3.074352,-0.96976 -7.738028,-3.61697 -7.126637,-7.07438 z"
       id="path868"
       sodipodi:nodetypes="aacssssa"
       inkscape:export-xdpi="95.5"
       inkscape:export-ydpi="95.5" />
    <path
       style="fill:#ca7139;fill-opacity:1;stroke:#000000;stroke-width:0;stroke-linecap:butt;stroke-linejoin:miter;stroke-miterlimit:4;stroke-dasharray:none;stroke-opacity:1"
       d="m -46.011921,27.055258 c -0.747918,1.71986 1.529472,4.60854 3.255386,4.45781 1.178526,-0.10291 1.759652,-3.39182 1.759652,-3.39182 l 17.068757,-39.248399 c 4.12496,16.5127088 14.9662705,31.974429 18.9163905,27.522349 1.01971,-1.14931 -4.64058,-6.20134 -8.7533405,-13.9101792 -4.78737,-8.973363 -4.03001,-20.4256468 -8.22742,-20.6865818 -5.73735,-0.356644 -2.81545,4.36092 -2.81545,4.36092 l -17.860597,40.895901 c 0,0 -2.861931,-1.10709 -3.343378,0 z"
       id="path872"
       sodipodi:nodetypes="aaccssscca"
       inkscape:export-xdpi="95.5"
       inkscape:export-ydpi="95.5" />
    <path
       style="fill:#ca7139;fill-opacity:1;stroke:#000000;stroke-width:0;stroke-linecap:butt;stroke-linejoin:miter;stroke-miterlimit:4;stroke-dasharray:none;stroke-opacity:1"
       d="m 8.6829845,3.9858878 c 0.38506,-2.484503 -1.96867,-5.23319 -4.36851,-4.93752901 -11.88872,1.464566 -6.49268,18.89098921 -0.54787,16.50991921 0,0 -1.27144,2.40444 -0.60657,2.55341 0.75211,0.16852 3.39387,-0.27037 2.99407,1.2429 -0.59078,2.23605 -4.81526,0.10852 -4.81107,0.76328 0.017,2.66473 7.41481,2.0745 7.63457,-1.0092 0.3969,-5.5699 -4.51586,-0.17891 -2.7275,-3.93853 2.08021,-1.10876 3.60247,-1.34526 6.8626995,-4.29881 L 12.936824,9.0300578 C 6.0237045,17.209408 2.5868545,10.779228 2.2699645,8.1123578 c -0.32235,-2.71282 -0.84919,-7.056194 2.30844,-7.80417901 1.85049,-0.438331 3.18568,2.36921601 2.9283,3.00705901 -2.99271,-0.598608 -3.2415,1.70802 -2.27365,2.81773 0.90992,1.04331 2.96408,0.98787 3.44992,-2.14708 z"
       id="path874"
       sodipodi:nodetypes="sscsssscccsscss"
       inkscape:export-xdpi="95.5"
       inkscape:export-ydpi="95.5" />
    <path
       style="display:inline;fill:#ca7139;fill-opacity:1;stroke:#000000;stroke-width:0;stroke-linecap:butt;stroke-linejoin:miter;stroke-miterlimit:4;stroke-dasharray:none;stroke-opacity:1"
       d="m 24.942974,0.35900879 c -9.5892,-3.10252499 -13.7389,7.56464901 -11.82057,13.43099921 0.85207,2.60564 4.04958,2.87486 6.08655,1.76047 2.15023,-1.17639 3.12106,-3.81623 3.12106,-3.81623 7.36518,9.91987 11.44095,0.9867 14.8068,-6.3043402 -0.14072,13.4581302 4.5649,12.4069602 7.85945,9.4489102 1.18164,-1.06096 1.89792,-1.92709 2.96572,-3.55571 l -0.37329,-1.6446402 c -10.2263,12.9763502 -2.46523,-9.10297901 -8.21219,-10.27883801 -1.92952,-0.394787 -2.06106,4.58999801 -3.63907,7.00361801 -2.54708,3.8958502 -3.31779,6.0975502 -6.06623,6.1532802 -3.86811,0.0785 -2.58807,-8.6376102 -5.84808,-8.6341802 0,0 -1.49311,7.8119002 -5.04099,7.4722902 -2.04835,-0.1961 -2.10954,-1.9072302 -1.68817,-5.2621902 0.0639,-0.50901 0.38557,-2.43827 2.43221,-3.335787 2.98352,-1.308344 7.93351,-1.62337 5.4168,-2.43765201 z"
       id="path847-3"
       sodipodi:nodetypes="sssccsccssssssss"
       inkscape:export-xdpi="95.5"
       inkscape:export-ydpi="95.5" />
    <path
       style="display:inline;opacity:1;fill:#ca7139;fill-opacity:1;stroke:#000000;stroke-width:0;stroke-linecap:butt;stroke-linejoin:miter;stroke-miterlimit:4;stroke-dasharray:none;stroke-opacity:1"
       d="m 44.978034,-8.8866112 c 2.75799,4.682399 -9.92526,6.506493 -9.92526,6.506493 0,0 7.91412,-9.9209488 9.92526,-6.506493 z"
       id="path846-7"
       sodipodi:nodetypes="scs"
       inkscape:export-xdpi="95.5"
       inkscape:export-ydpi="95.5" />
    <path
       style="display:inline;fill:#411f05;fill-opacity:1;stroke:#000000;stroke-width:0;stroke-linecap:butt;stroke-linejoin:miter;stroke-miterlimit:4;stroke-dasharray:none;stroke-opacity:1"
       d="m 82.319012,159.29263 c 0,0 -1.36654,19.58265 -3.474505,29.13238 -2.040406,9.24367 -9.51904,17.55389 -8.819892,26.99423 0.588527,7.94667 14.070635,14.16543 10.690778,21.38156 -3.299691,7.04497 -22.717907,5.34538 -22.717907,5.34538 0,0 22.232226,3.67845 28.063297,-3.74177 6.753736,-8.59434 -5.912207,-21.95168 -3.474501,-32.60688 2.409362,-10.53131 14.469113,-17.05191 17.105252,-27.52876 2.417806,-9.60911 -1.870888,-29.66692 -1.870888,-29.66692 -14.063719,-14.09659 -8.455428,4.37279 -15.501634,10.69078 z"
       id="path881"
       sodipodi:nodetypes="caaacaaacc"
       inkscape:export-xdpi="96.199997"
       inkscape:export-ydpi="96.199997" />
    <path
       style="display:inline;fill:#411f05;fill-opacity:1;stroke:#000000;stroke-width:0;stroke-linecap:butt;stroke-linejoin:miter;stroke-miterlimit:4;stroke-dasharray:none;stroke-opacity:1"
       d="m 97.820645,148.60185 c 0,0 -3.417083,38.03838 -0.267271,56.66114 1.560102,9.22385 2.379308,20.22583 9.354436,26.45968 12.1954,10.89935 47.8019,11.07662 47.8019,11.07662 0,0 -30.69598,-4.98977 -40.05109,-15.88747 -7.26369,-8.46142 -6.13803,-21.53681 -7.48354,-32.60688 -1.97814,-16.27493 -0.80181,-49.17759 -0.80181,-49.17759 z"
       id="path883"
       sodipodi:nodetypes="caacaacc"
       inkscape:export-xdpi="96.199997"
       inkscape:export-ydpi="96.199997" />
    <path
       style="display:inline;opacity:0.99;fill:#411f05;fill-opacity:1;stroke:#000000;stroke-width:0;stroke-linecap:butt;stroke-linejoin:miter;stroke-miterlimit:4;stroke-dasharray:none;stroke-opacity:1"
       d="m 84.457169,198.16795 c 0,0 4.266827,2.1899 4.585385,3.56855 0.539817,2.33617 -2.028153,7.71062 -4.585385,9.94096 1.675427,-2.99503 3.721996,-7.79687 2.733594,-9.55861 -0.640358,-1.14139 -3.615399,-2.61269 -3.615399,-2.61269 0,0 0.70143,3.79302 -1.146348,4.58813 -1.974925,0.84983 -5.867559,3.02433 -4.32085,4.14207 -1.871653,-1.96736 1.302219,-3.72419 2.469059,-4.77931 1.451074,-1.31214 1.146349,-4.97047 1.146349,-4.97047 z"
       id="path857-3"
       sodipodi:nodetypes="cscscscscc"
       inkscape:export-xdpi="96.199997"
       inkscape:export-ydpi="96.199997" />
    <path
       id="path857-8-1"
       style="display:inline;fill:#411f05;fill-opacity:1;stroke:#000000;stroke-width:0;stroke-linecap:butt;stroke-linejoin:miter;stroke-miterlimit:4;stroke-dasharray:none;stroke-opacity:1"
       sodipodi:type="inkscape:offset"
       inkscape:radius="0"
       inkscape:original="M 150.23047 172.03125 L 143.5293 172.50391 C 143.5293 172.50391 144.05513 186.08698 141.54883 190.95898 C 139.70863 194.53617 135.05644 200.29485 136.70898 206.82812 C 136.38792 202.46112 141.79447 196.05655 144.74609 193.32617 C 147.93757 190.37389 146.72656 176.28906 146.72656 176.28906 C 146.72656 176.28906 151.86467 181.75222 152.9707 185.99023 C 154.67787 192.53164 151.14381 210.36179 148.25 221.48242 C 152.66687 213.2011 157.1023 193.24457 156.16992 184.57031 C 155.6197 179.45134 150.23047 172.03125 150.23047 172.03125 z M 136.70898 206.82812 C 136.75897 207.50794 136.92335 208.14604 137.2832 208.70508 C 137.00222 208.07016 136.86629 207.45004 136.70898 206.82812 z "
       d="m 150.23047,172.03125 -6.70117,0.47266 c 0,0 0.52583,13.58307 -1.98047,18.45507 -1.8402,3.57719 -6.49239,9.33587 -4.83985,15.86914 -0.32106,-4.367 5.08549,-10.77157 8.03711,-13.50195 3.19148,-2.95228 1.98047,-17.03711 1.98047,-17.03711 0,0 5.13811,5.46316 6.24414,9.70117 1.70717,6.54141 -1.82689,24.37156 -4.7207,35.49219 4.41687,-8.28132 8.8523,-28.23785 7.91992,-36.91211 -0.55022,-5.11897 -5.93945,-12.53906 -5.93945,-12.53906 z m -13.52149,34.79687 c 0.05,0.67982 0.21437,1.31792 0.57422,1.87696 -0.28098,-0.63492 -0.41691,-1.25504 -0.57422,-1.87696 z"
       transform="matrix(-0.60712678,0,0,0.53636278,135.07928,70.978933)"
       inkscape:export-xdpi="96.199997"
       inkscape:export-ydpi="96.199997" />
    <path
       style="display:inline;fill:#411f05;fill-opacity:1;stroke:#000000;stroke-width:0;stroke-linecap:butt;stroke-linejoin:miter;stroke-miterlimit:4;stroke-dasharray:none;stroke-opacity:1"
       d="m 193.71767,165.88879 c 0,0 -0.95273,5.22981 0.53687,7.45232 1.3846,2.06585 6.4199,2.17808 7.11355,4.43111 0.9059,2.94242 -4.96606,8.25798 -4.96606,8.25798 0,0 2.85732,-4.33145 2.01327,-6.44525 -1.34427,-3.36649 -9.63367,-3.7624 -10.20056,-7.25091 -0.41157,-2.5327 5.50293,-6.44525 5.50293,-6.44525 z"
       id="path875-4"
       sodipodi:nodetypes="caacaac"
       inkscape:export-xdpi="96.199997"
       inkscape:export-ydpi="96.199997" />
    <path
       style="display:inline;opacity:0.99;fill:#411f05;fill-opacity:1;stroke:#000000;stroke-width:0;stroke-linecap:butt;stroke-linejoin:miter;stroke-miterlimit:4;stroke-dasharray:none;stroke-opacity:1"
       d="m 107.67206,228.14494 c 0,0 -5.15759,4.31551 -5.54265,7.03235 -0.65252,4.60376 2.45156,15.19489 5.54265,19.59011 -2.0252,-5.90215 -4.49902,-15.36487 -3.30427,-18.83665 0.77404,-2.24927 4.37016,-5.14868 4.37016,-5.14868 0,0 -0.84786,7.4747 1.38567,9.04159 2.38723,1.67471 7.09252,5.95988 5.22291,8.16254 2.26238,-3.87697 -1.57409,-7.33905 -2.98452,-9.41832 -1.75402,-2.58576 -1.38567,-9.79505 -1.38567,-9.79505 z"
       id="path857-3-7"
       sodipodi:nodetypes="cscscscscc"
       inkscape:export-xdpi="96.199997"
       inkscape:export-ydpi="96.199997" />
    <path
       id="path857-8-1-9"
       style="display:inline;fill:#411f05;fill-opacity:1;stroke:#000000;stroke-width:0;stroke-linecap:butt;stroke-linejoin:miter;stroke-miterlimit:4;stroke-dasharray:none;stroke-opacity:1"
       sodipodi:type="inkscape:offset"
       inkscape:radius="0"
       inkscape:original="M 150.23047 172.03125 L 143.5293 172.50391 C 143.5293 172.50391 144.05513 186.08698 141.54883 190.95898 C 139.70863 194.53617 135.05644 200.29485 136.70898 206.82812 C 136.38792 202.46112 141.79447 196.05655 144.74609 193.32617 C 147.93757 190.37389 146.72656 176.28906 146.72656 176.28906 C 146.72656 176.28906 151.86467 181.75222 152.9707 185.99023 C 154.67787 192.53164 151.14381 210.36179 148.25 221.48242 C 152.66687 213.2011 157.1023 193.24457 156.16992 184.57031 C 155.6197 179.45134 150.23047 172.03125 150.23047 172.03125 z M 136.70898 206.82812 C 136.75897 207.50794 136.92335 208.14604 137.2832 208.70508 C 137.00222 208.07016 136.86629 207.45004 136.70898 206.82812 z "
       d="m 150.23047,172.03125 -6.70117,0.47266 c 0,0 0.52583,13.58307 -1.98047,18.45507 -1.8402,3.57719 -6.49239,9.33587 -4.83985,15.86914 -0.32106,-4.367 5.08549,-10.77157 8.03711,-13.50195 3.19148,-2.95228 1.98047,-17.03711 1.98047,-17.03711 0,0 5.13811,5.46316 6.24414,9.70117 1.70717,6.54141 -1.82689,24.37156 -4.7207,35.49219 4.41687,-8.28132 8.8523,-28.23785 7.91992,-36.91211 -0.55022,-5.11897 -5.93945,-12.53906 -5.93945,-12.53906 z m -13.52149,34.79687 c 0.05,0.67982 0.21437,1.31792 0.57422,1.87696 -0.28098,-0.63492 -0.41691,-1.25504 -0.57422,-1.87696 z"
       transform="matrix(0.87696786,0,0,0.42144025,-118.6762,75.116684)"
       inkscape:export-xdpi="96.199997"
       inkscape:export-ydpi="96.199997" />
    <path
       style="display:inline;opacity:0.99;fill:#411f05;fill-opacity:1;stroke:#000000;stroke-width:0;stroke-linecap:butt;stroke-linejoin:miter;stroke-miterlimit:4;stroke-dasharray:none;stroke-opacity:1"
       d="m 79.386178,221.33625 c 0,0 -6.605283,-9.53013 -10.763652,-10.24165 -7.046466,-1.2057 -23.257149,4.52998 -29.984435,10.24165 9.033773,-3.74213 23.51732,-8.31324 28.831197,-6.1056 3.442719,1.43027 7.880536,8.07515 7.880536,8.07515 0,0 -11.440727,-1.56667 -13.838985,2.56042 -2.563294,4.41108 -9.122135,13.10543 -12.493521,9.6508 5.934067,4.18041 11.233082,-2.90855 14.415606,-5.51474 3.957733,-3.24104 14.992211,-2.56042 14.992211,-2.56042 z"
       id="path857-0"
       sodipodi:nodetypes="cscscscscc"
       inkscape:export-xdpi="96.199997"
       inkscape:export-ydpi="96.199997" />
    <path
       style="display:inline;fill:#411f05;fill-opacity:1;stroke:#000000;stroke-width:0;stroke-linecap:butt;stroke-linejoin:miter;stroke-miterlimit:4;stroke-dasharray:none;stroke-opacity:1"
       d="m 140.49747,163.68181 c 0,0 4.62695,4.09937 5.09931,6.92697 0.80042,4.79146 -3.00728,15.81439 -6.79908,20.3888 2.48428,-6.14278 5.51887,-15.9913 4.0533,-19.60462 -0.9495,-2.34098 -5.36081,-5.35859 -5.36081,-5.35859 0,0 1.04006,7.77944 -1.69976,9.41021 -2.92837,1.74299 -8.70024,6.20286 -6.40682,8.49533 -2.77524,-4.03503 1.93088,-7.63825 3.66103,-9.8023 2.15161,-2.69119 1.69978,-10.1944 1.69978,-10.1944 z"
       id="path857-8-3"
       sodipodi:nodetypes="cscscscscc"
       inkscape:export-xdpi="96.199997"
       inkscape:export-ydpi="96.199997" />
    <path
       style="display:inline;fill:#411f05;fill-opacity:1;stroke:#000000;stroke-width:0;stroke-linecap:butt;stroke-linejoin:miter;stroke-miterlimit:4;stroke-dasharray:none;stroke-opacity:1"
       d="m 67.395779,168.55669 c 0,0 -0.70632,9.57611 -1.795857,14.24602 -1.054619,4.52025 -4.920081,8.58403 -4.558713,13.20045 0.304191,3.886 7.272646,6.92704 5.525712,10.45579 -1.705503,3.44506 -11.742141,2.61395 -11.742141,2.61395 0,0 11.491106,1.7988 14.504997,-1.82976 3.490786,-4.20272 -3.055828,-10.7346 -1.795857,-15.94509 1.245321,-5.14992 7.478612,-8.33856 8.841143,-13.46184 1.249688,-4.69895 -0.966999,-14.50742 -0.966999,-14.50742 -7.269075,-6.89337 -4.370331,2.13834 -8.012285,5.2279 z"
       id="path881-9"
       sodipodi:nodetypes="caaacaaacc"
       inkscape:export-xdpi="96.199997"
       inkscape:export-ydpi="96.199997" />
    <path
       style="display:inline;fill:#411f05;fill-opacity:1;stroke:#000000;stroke-width:0;stroke-linecap:butt;stroke-linejoin:miter;stroke-miterlimit:4;stroke-dasharray:none;stroke-opacity:1"
       d="m 111.67974,182.36119 c 0,0 -0.74027,11.68261 -0.0579,17.40215 0.33798,2.8329 0.51546,6.21189 2.02654,8.12648 2.64199,3.34748 10.35572,3.40192 10.35572,3.40192 0,0 -6.64992,-1.53249 -8.6766,-4.87946 -1.57359,-2.59873 -1.32973,-6.61453 -1.62122,-10.01445 -0.42854,-4.99847 -0.17371,-15.10375 -0.17371,-15.10375 z"
       id="path883-9"
       sodipodi:nodetypes="caacaacc"
       inkscape:export-xdpi="96.199997"
       inkscape:export-ydpi="96.199997" />
    <path
       id="path857-8-1-9-9"
       style="display:inline;fill:#411f05;fill-opacity:1;stroke:#000000;stroke-width:0;stroke-linecap:butt;stroke-linejoin:miter;stroke-miterlimit:4;stroke-dasharray:none;stroke-opacity:1"
       sodipodi:type="inkscape:offset"
       inkscape:radius="0"
       inkscape:original="M 150.23047 172.03125 L 143.5293 172.50391 C 143.5293 172.50391 144.05513 186.08698 141.54883 190.95898 C 139.70863 194.53617 135.05644 200.29485 136.70898 206.82812 C 136.38792 202.46112 141.79447 196.05655 144.74609 193.32617 C 147.93757 190.37389 146.72656 176.28906 146.72656 176.28906 C 146.72656 176.28906 151.86467 181.75222 152.9707 185.99023 C 154.67787 192.53164 151.14381 210.36179 148.25 221.48242 C 152.66687 213.2011 157.1023 193.24457 156.16992 184.57031 C 155.6197 179.45134 150.23047 172.03125 150.23047 172.03125 z M 136.70898 206.82812 C 136.75897 207.50794 136.92335 208.14604 137.2832 208.70508 C 137.00222 208.07016 136.86629 207.45004 136.70898 206.82812 z "
       d="m 150.23047,172.03125 -6.70117,0.47266 c 0,0 0.52583,13.58307 -1.98047,18.45507 -1.8402,3.57719 -6.49239,9.33587 -4.83985,15.86914 -0.32106,-4.367 5.08549,-10.77157 8.03711,-13.50195 3.19148,-2.95228 1.98047,-17.03711 1.98047,-17.03711 0,0 5.13811,5.46316 6.24414,9.70117 1.70717,6.54141 -1.82689,24.37156 -4.7207,35.49219 4.41687,-8.28132 8.8523,-28.23785 7.91992,-36.91211 -0.55022,-5.11897 -5.93945,-12.53906 -5.93945,-12.53906 z m -13.52149,34.79687 c 0.05,0.67982 0.21437,1.31792 0.57422,1.87696 -0.28098,-0.63492 -0.41691,-1.25504 -0.57422,-1.87696 z"
       transform="matrix(-0.64195157,0,0,-0.26279459,126.18348,253.05854)"
       inkscape:export-xdpi="96.199997"
       inkscape:export-ydpi="96.199997" />
    <path
       style="display:inline;opacity:0.99;fill:#411f05;fill-opacity:1;stroke:#000000;stroke-width:0;stroke-linecap:butt;stroke-linejoin:miter;stroke-miterlimit:4;stroke-dasharray:none;stroke-opacity:1"
       d="m 179.60511,197.67495 c 0,0 5.15757,-4.31551 5.54262,-7.03235 0.65251,-4.60376 -2.45154,-15.19489 -5.54262,-19.59011 2.02519,5.90215 4.49899,15.36487 3.30426,18.83665 -0.77404,2.24927 -4.37015,5.14868 -4.37015,5.14868 0,0 0.84786,-7.4747 -1.38566,-9.04159 -2.38721,-1.67471 -7.09247,-5.95988 -5.22287,-8.16254 -2.26238,3.87697 1.57407,7.33905 2.9845,9.41832 1.754,2.58576 1.38566,9.79505 1.38566,9.79505 z"
       id="path857-3-3"
       sodipodi:nodetypes="cscscscscc"
       inkscape:export-xdpi="96.199997"
       inkscape:export-ydpi="96.199997" />
    <path
       style="display:inline;opacity:0.99;fill:#411f05;fill-opacity:1;stroke:#000000;stroke-width:0;stroke-linecap:butt;stroke-linejoin:miter;stroke-miterlimit:4;stroke-dasharray:none;stroke-opacity:1"
       d="m 178.70444,158.6574 c 0,0 -5.15759,4.31551 -5.54265,7.03235 -0.65252,4.60376 2.45156,15.19489 5.54265,19.59011 -2.0252,-5.90215 -4.49902,-15.36487 -3.30427,-18.83665 0.77404,-2.24927 4.37016,-5.14868 4.37016,-5.14868 0,0 -0.84786,7.4747 1.38567,9.04159 2.38723,1.67471 7.09252,5.95988 5.22291,8.16254 2.26238,-3.87697 -1.57409,-7.33905 -2.98452,-9.41832 -1.75402,-2.58576 -1.38567,-9.79505 -1.38567,-9.79505 z"
       id="path857-3-7-6"
       sodipodi:nodetypes="cscscscscc"
       inkscape:export-xdpi="96.199997"
       inkscape:export-ydpi="96.199997" />
    <path
       style="display:inline;opacity:0.99;fill:#411f05;fill-opacity:1;stroke:#000000;stroke-width:0;stroke-linecap:butt;stroke-linejoin:miter;stroke-miterlimit:4;stroke-dasharray:none;stroke-opacity:1"
       d="m 112.16104,223.95427 c 0,0 6.15042,-6.21465 10.02241,-6.67865 6.56122,-0.78624 21.65553,2.95402 27.91953,6.67865 -8.41165,-2.44027 -21.89779,-5.42111 -26.8457,-3.98149 -3.20564,0.93268 -7.33783,5.26585 -7.33783,5.26585 0,0 10.65283,-1.02164 12.88594,1.66966 2.38676,2.8765 8.49393,8.54614 11.63314,6.29335 -5.52541,2.72608 -10.45951,-1.89669 -13.42286,-3.59619 -3.68519,-2.1135 -13.95977,-1.66967 -13.95977,-1.66967 z"
       id="path857-5"
       sodipodi:nodetypes="cscscscscc"
       inkscape:export-xdpi="96.199997"
       inkscape:export-ydpi="96.199997" />
  </g>
</svg>
