<svg width="36" height="42" xmlns="http://www.w3.org/2000/svg">
 <defs>
  <radialGradient fy="50%" fx="50%" r="50%" cy="50%" cx="50%" id="grad1">
   <stop stop-color="#FFFA8D" stop-opacity="0" offset="0%"/>
   <stop stop-color="rgb(255,255,255)" offset="100%"/>
  </radialGradient>
  <radialGradient fy="50%" fx="50%" r="50%" cy="50%" cx="50%" id="grad2">
   <stop stop-color="#FFFA8D" stop-opacity="0" offset="50%"/>
   <stop stop-color="rgb(255,255,255)" offset="100%"/>
  </radialGradient>
 </defs>
 <g>
  <title>background</title>
  <rect fill="none" id="canvas_background" height="602" width="802" y="-1" x="-1"/>
 </g>
 <g stroke="null">
  <title>Layer 1</title>
  <ellipse ry="16.89569" rx="16.89569" id="svg_13" cy="20" cx="18" fill-opacity="null" stroke-opacity="null" stroke-width="null" fill="url(#grad2)"/>
  <ellipse stroke="#000000" ry="11" rx="11" id="svg_14" cy="20" cx="18" stroke-opacity="null" stroke-width="null" fill="white"/>
  <rect stroke="#000000" id="svg_11" height="14.06066" width="16" y="18.89888" x="10" stroke-opacity="null" fill="white"/>
  <ellipse stroke="#ffffff" ry="11" rx="11" id="svg_12" cy="20" cx="18" stroke-width="0" fill="white"/>
  <ellipse stroke="#ffffff" ry="11" rx="11" id="svg_12" cy="20" cx="18" stroke-width="0" fill="url(#grad1)"/>
  <rect stroke="#C48157" id="svg_8" height="12.06092" width="4" y="23.45772" x="16" fill="#FFFA8D"/>
  <ellipse stroke="#C48157" ry="2" rx="2" id="svg_9" cy="23.11402" cx="18" stroke-width="null" fill="#FFFA8D"/>
  <rect stroke="#FFFA8D" id="svg_18" height="7.71447" width="2" y="23.26783" x="16.99432" stroke-width="null" fill="#FFFA8D"/>
  <rect stroke="#000000" stroke-width="0.7" id="svg_3" height="1.68728" width="9.87371" y="37.91881" x="13.06315" fill="#444444"/>
  <rect stroke="#000000" stroke-width="0.7" id="svg_4" height="1.68728" width="13.37325" y="36.23153" x="11.31337" fill="#444444"/>
  <rect stroke="#000000" stroke-width="0.7" id="svg_6" height="1.68728" width="15.81043" y="34.60646" x="10.09478" fill="#444444"/>
  <rect stroke="#000000" stroke-width="0.7" id="svg_7" height="1.68728" width="15.81043" y="32.79448" x="10.09479" fill="#444444"/>
 </g>
</svg>