<svg width="600" height="350" xmlns="http://www.w3.org/2000/svg">
 <!-- Created with Method Draw - http://github.com/duopixel/Method-Draw/ -->

  <g stroke="null" id="svg_1">
   <title id="svg_2" stroke="null" transform="translate(0,-1) translate(0,-1) translate(0,-1) translate(0,-1) translate(0,-1) translate(0,-1) translate(0,-1) translate(0,-1) translate(0,-1) translate(-1,0) translate(-1,0) translate(-1,0) translate(-1,0) translate(-1,0) translate(-1,0) translate(-1,0) translate(-1,0) translate(-1,0) translate(0,16.86688232421875) translate(21,0) translate(-1,0) translate(-1,0) translate(-1,0) translate(0,-1) translate(0,-1) translate(0,-1) translate(0,-1) translate(0,-1) translate(0,-1) translate(-1,0) translate(-1,0) translate(-1,0) translate(-1,0) translate(-1,0) translate(-1,0) translate(115.00006103515625,0) translate(0,126.6531982421875) translate(-92,-6) translate(-136,-110) translate(333.02911376953125,0) translate(-69,-24) translate(-1,-1) translate(395,316) translate(397.4110107421875,316.7500305175781) scale(0.5441790223121643) translate(-397.4110107421875,-316.7500305175781) translate(730.2946166992188,582.0695190429688) scale(5.574751377105713) translate(-730.2946166992188,-582.0695190429688) translate(107.92597198486328,96.17086791992188) scale(0.5376788377761841,0.5485754609107971) translate(-107.92597198486328,-96.17086791992188) translate(265.1158752441406,105.60672760009766) scale(0.3766113817691803) translate(-265.1158752441406,-105.60672760009766) translate(876.5037841796875,472.9178771972656) scale(0.77168869972229) translate(-876.5037841796875,-472.9178771972656) ">Layer 1</title>
   <ellipse stroke="#ffffff" ry="18.36497" rx="18.00017" id="svg_3" cy="322.63502" cx="572.99983" stroke-width="1.5" fill="null"/>
   <ellipse stroke="#ffffff" ry="9.54258" rx="9.35303" id="svg_4" cy="317.39492" cx="572.99983" stroke-width="1.5" fill="null"/>
   <ellipse stroke="#ffffff" ry="8.46229" rx="7.70596" id="svg_5" cy="315.81677" cx="561.99882" stroke-width="1.5" fill="null"/>
   <path stroke="#ffffff" id="svg_6" d="m554.29546,309.86123c4.13966,2.29766 6.27928,4.83538 9.00714,10.61397l-3.52944,5.76156" stroke-width="1.5" fill="null"/>
   <path stroke="#ffffff" id="svg_7" d="m554.64711,309.8725c-2.24055,6.68847 -8.71512,18.01021 0.94119,21.60585c9.65631,3.59564 15.64722,-18.24495 15.41192,-17.88484c-0.2353,0.3601 -9.76481,-0.48013 -12.87545,6.29279" stroke-width="1.5" fill="null"/>
  </g>
  <g stroke="null" id="svg_15">
   <title id="svg_9" stroke="null" transform="translate(0,-1) translate(0,-1) translate(0,-1) translate(0,-1) translate(0,-1) translate(0,-1) translate(0,-1) translate(0,-1) translate(0,-1) translate(-1,0) translate(-1,0) translate(-1,0) translate(-1,0) translate(-1,0) translate(-1,0) translate(-1,0) translate(-1,0) translate(-1,0) translate(0,16.86688232421875) translate(21,0) translate(-1,0) translate(-1,0) translate(-1,0) translate(0,-1) translate(0,-1) translate(0,-1) translate(0,-1) translate(0,-1) translate(0,-1) translate(-1,0) translate(-1,0) translate(-1,0) translate(-1,0) translate(-1,0) translate(-1,0) translate(115.00006103515625,0) translate(0,126.6531982421875) translate(-92,-6) translate(-136,-110) translate(333.02911376953125,0) translate(-69,-24) translate(-1,-1) translate(395,316) translate(397.4110107421875,316.7500305175781) scale(0.5441790223121643) translate(-397.4110107421875,-316.7500305175781) translate(730.2946166992188,582.0695190429688) scale(5.574751377105713) translate(-730.2946166992188,-582.0695190429688) translate(107.92597198486328,96.17086791992188) scale(0.5376788377761841,0.5485754609107971) translate(-107.92597198486328,-96.17086791992188) translate(265.1158752441406,105.60672760009766) scale(0.3766113817691803) translate(-265.1158752441406,-105.60672760009766) translate(876.5037841796875,472.9178771972656) scale(0.77168869972229) translate(-876.5037841796875,-472.9178771972656) ">Layer 1</title>
   <ellipse stroke="#ffffff" ry="18.36497" rx="18.00017" id="svg_10" cy="322.63502" cx="572.99983" stroke-width="1.5" fill="null"/>
   <ellipse stroke="#ffffff" ry="9.54258" rx="9.35303" id="svg_11" cy="317.39492" cx="572.99983" stroke-width="1.5" fill="null"/>
   <ellipse stroke="#ffffff" ry="8.46229" rx="7.70596" id="svg_12" cy="315.81677" cx="561.99882" stroke-width="1.5" fill="null"/>
   <path stroke="#ffffff" id="svg_13" d="m554.29546,309.86123c4.13966,2.29766 6.27928,4.83538 9.00714,10.61397l-3.52944,5.76156" stroke-width="1.5" fill="null"/>
   <path stroke="#ffffff" id="svg_14" d="m554.64711,309.8725c-2.24055,6.68847 -8.71512,18.01021 0.94119,21.60585c9.65631,3.59564 15.64722,-18.24495 15.41192,-17.88484c-0.2353,0.3601 -9.76481,-0.48013 -12.87545,6.29279" stroke-width="1.5" fill="null"/>
  </g>
 
</svg>